<mxfile host="app.diagrams.net" agent="Mozilla/5.0 (Macintosh; Intel Mac OS X 10_15_7) AppleWebKit/605.1.15 (KHTML, like Gecko) Version/18.1.1 Safari/605.1.15" version="25.0.3">
  <diagram name="Page-1" id="lWYaRy7YXWWMsZ1So5KU">
    <mxGraphModel dx="1718" dy="1030" grid="1" gridSize="10" guides="1" tooltips="1" connect="1" arrows="1" fold="1" page="1" pageScale="1" pageWidth="850" pageHeight="1100" math="0" shadow="0">
      <root>
        <mxCell id="0" />
        <mxCell id="1" parent="0" />
        <mxCell id="JMyZPUP7bZo_tjjevuAE-3" style="edgeStyle=orthogonalEdgeStyle;rounded=0;orthogonalLoop=1;jettySize=auto;html=1;" parent="1" source="JMyZPUP7bZo_tjjevuAE-1" target="JMyZPUP7bZo_tjjevuAE-2" edge="1">
          <mxGeometry relative="1" as="geometry" />
        </mxCell>
        <mxCell id="JMyZPUP7bZo_tjjevuAE-5" value="" style="edgeStyle=orthogonalEdgeStyle;rounded=0;orthogonalLoop=1;jettySize=auto;html=1;" parent="1" source="JMyZPUP7bZo_tjjevuAE-1" target="JMyZPUP7bZo_tjjevuAE-4" edge="1">
          <mxGeometry relative="1" as="geometry" />
        </mxCell>
        <mxCell id="JMyZPUP7bZo_tjjevuAE-1" value="&lt;font style=&quot;font-size: 14px;&quot;&gt;ViewRootImpl&lt;/font&gt;" style="rounded=0;whiteSpace=wrap;html=1;" parent="1" vertex="1">
          <mxGeometry x="170" y="360" width="120" height="60" as="geometry" />
        </mxCell>
        <mxCell id="NvG-mu4V9_5_-aAuWkp0-2" value="" style="edgeStyle=orthogonalEdgeStyle;rounded=0;orthogonalLoop=1;jettySize=auto;html=1;" edge="1" parent="1" source="JMyZPUP7bZo_tjjevuAE-2" target="NvG-mu4V9_5_-aAuWkp0-1">
          <mxGeometry relative="1" as="geometry" />
        </mxCell>
        <mxCell id="JMyZPUP7bZo_tjjevuAE-2" value="&lt;font style=&quot;font-size: 14px;&quot;&gt;ViewRootImpl&lt;/font&gt;" style="rounded=0;whiteSpace=wrap;html=1;" parent="1" vertex="1">
          <mxGeometry x="440" y="360" width="120" height="60" as="geometry" />
        </mxCell>
        <mxCell id="JMyZPUP7bZo_tjjevuAE-7" value="" style="edgeStyle=orthogonalEdgeStyle;rounded=0;orthogonalLoop=1;jettySize=auto;html=1;" parent="1" source="JMyZPUP7bZo_tjjevuAE-4" target="JMyZPUP7bZo_tjjevuAE-6" edge="1">
          <mxGeometry relative="1" as="geometry" />
        </mxCell>
        <mxCell id="JMyZPUP7bZo_tjjevuAE-4" value="&lt;font style=&quot;font-size: 14px;&quot;&gt;ViewRootImpl&lt;/font&gt;" style="rounded=0;whiteSpace=wrap;html=1;" parent="1" vertex="1">
          <mxGeometry x="170" y="500" width="120" height="60" as="geometry" />
        </mxCell>
        <mxCell id="JMyZPUP7bZo_tjjevuAE-9" value="" style="edgeStyle=orthogonalEdgeStyle;rounded=0;orthogonalLoop=1;jettySize=auto;html=1;" parent="1" source="JMyZPUP7bZo_tjjevuAE-6" target="JMyZPUP7bZo_tjjevuAE-8" edge="1">
          <mxGeometry relative="1" as="geometry" />
        </mxCell>
        <mxCell id="JMyZPUP7bZo_tjjevuAE-6" value="" style="whiteSpace=wrap;html=1;rounded=0;" parent="1" vertex="1">
          <mxGeometry x="370" y="500" width="120" height="60" as="geometry" />
        </mxCell>
        <mxCell id="JMyZPUP7bZo_tjjevuAE-8" value="" style="shape=tape;whiteSpace=wrap;html=1;rounded=0;" parent="1" vertex="1">
          <mxGeometry x="370" y="620" width="120" height="100" as="geometry" />
        </mxCell>
        <mxCell id="NvG-mu4V9_5_-aAuWkp0-1" value="" style="ellipse;whiteSpace=wrap;html=1;rounded=0;" vertex="1" parent="1">
          <mxGeometry x="660" y="350" width="80" height="80" as="geometry" />
        </mxCell>
      </root>
    </mxGraphModel>
  </diagram>
</mxfile>
